<svg width="18" height="18" viewBox="0 0 18 18" fill="none" xmlns="http://www.w3.org/2000/svg">
<path fill-rule="evenodd" clip-rule="evenodd" d="M11.9949 13.7223C12.4187 14.2591 12.9272 14.8666 12.9272 14.8666C16.0492 14.7677 17.25 12.7193 17.25 12.7193C17.25 8.17049 15.2158 4.48342 15.2158 4.48342C13.1815 2.95774 11.2461 3.00012 11.2461 3.00012L11.0484 3.22614C13.4499 3.96073 14.5659 5.02024 14.5659 5.02024C13.0967 4.21501 11.6558 3.81947 10.3138 3.66407C9.29666 3.55106 8.32192 3.57931 7.46019 3.69233C7.38619 3.69233 7.32297 3.70309 7.25171 3.71523C7.24134 3.71699 7.2308 3.71878 7.22003 3.72058C6.7256 3.76296 5.52483 3.94661 4.01327 4.61056C3.49058 4.85072 3.1798 5.02024 3.1798 5.02024C3.1798 5.02024 4.35231 3.90423 6.89512 3.16964L6.75385 3.00012C6.75385 3.00012 4.81849 2.95774 2.78425 4.48342C2.78425 4.48342 0.75 8.17049 0.75 12.7193C0.75 12.7193 1.93664 14.7677 5.05865 14.8666C5.05865 14.8666 5.58134 14.2309 6.00514 13.694C4.21105 13.1572 3.53296 12.0271 3.53296 12.0271C3.53296 12.0271 3.67423 12.126 3.92851 12.2672C3.94264 12.2814 3.95676 12.2955 3.98502 12.3096C4.00621 12.3237 4.0274 12.3343 4.04859 12.3449C4.06978 12.3555 4.09097 12.3661 4.11216 12.3803C4.46533 12.578 4.81849 12.7334 5.14341 12.8606C5.7226 13.0866 6.41481 13.3126 7.22003 13.468C8.27954 13.6658 9.52269 13.7364 10.8789 13.4821C11.5428 13.3691 12.2209 13.1714 12.9272 12.8747C13.4217 12.691 13.9726 12.4226 14.5518 12.0412C14.5518 12.0412 13.8455 13.1996 11.9949 13.7223ZM4.91741 9.83745C4.91741 8.97572 5.55311 8.26938 6.35833 8.26938C7.16356 8.26938 7.81338 8.97572 7.79926 9.83745C7.79926 10.6992 7.16356 11.4055 6.35833 11.4055C5.56724 11.4055 4.91741 10.6992 4.91741 9.83745ZM10.0737 9.83745C10.0737 8.97572 10.7094 8.26938 11.5146 8.26938C12.3198 8.26938 12.9555 8.97572 12.9555 9.83745C12.9555 10.6992 12.3198 11.4055 11.5146 11.4055C10.7235 11.4055 10.0737 10.6992 10.0737 9.83745Z" fill="white"/>
</svg>
