<svg width="18" height="19" viewBox="0 0 18 19" fill="none" xmlns="http://www.w3.org/2000/svg">
<path fill-rule="evenodd" clip-rule="evenodd" d="M11.2496 6.0127H12.7496V9.75415L12.7496 9.7627L12.7496 9.77082C12.75 11.6171 12.8926 12.0127 13.4996 12.0127C14.4778 12.0127 14.9996 11.5501 14.9996 9.7627C14.9996 5.79568 13.0099 3.7627 8.99969 3.7627C6.40166 3.76302 4.099 5.43539 3.29499 7.90589C2.49098 10.3764 3.36831 13.0837 5.46852 14.613C7.56873 16.1423 10.4146 16.1463 12.519 14.6227L13.3987 15.8377C10.7682 17.7421 7.2108 17.7373 4.58554 15.8256C1.96028 13.9139 0.863615 10.5298 1.86862 7.44168C2.87363 4.35357 5.75197 2.2631 8.9996 2.2627C13.8456 2.2627 16.4996 4.97439 16.4996 9.7627C16.4996 12.4214 15.2688 13.5127 13.4996 13.5127C12.4917 13.5127 11.9149 13.1877 11.5982 12.4663C10.9242 13.1143 10.0084 13.5127 8.99961 13.5127C6.92854 13.5127 5.24961 11.8338 5.24961 9.7627C5.24961 7.69163 6.92854 6.0127 8.99961 6.0127C9.84381 6.0127 10.6229 6.29165 11.2496 6.76241V6.0127ZM11.2496 9.7627C11.2496 11.0053 10.2422 12.0127 8.99961 12.0127C7.75697 12.0127 6.74961 11.0053 6.74961 9.7627C6.74961 8.52005 7.75697 7.5127 8.99961 7.5127C10.2422 7.5127 11.2496 8.52005 11.2496 9.7627Z" fill="white"/>
</svg>
