<svg width="48" height="48" viewBox="0 0 48 48" fill="none" xmlns="http://www.w3.org/2000/svg">
<ellipse cx="24" cy="24" rx="24" ry="24" fill="url(#paint0_linear)"/>
<path d="M24 48C37.2548 48 48 37.2549 48 24C48 17.3645 45.3072 11.358 40.9547 7.01361L7.01358 40.9547C11.358 45.3072 17.3645 48 24 48Z" fill="url(#paint1_linear)"/>
<path fill-rule="evenodd" clip-rule="evenodd" d="M32.4764 15.5804C33.343 16.447 33.343 17.852 32.4764 18.7186L18.6018 32.5932C17.7352 33.4597 16.3302 33.4597 15.4636 32.5932C14.597 31.7266 14.597 30.3215 15.4636 29.4549L29.3381 15.5804C30.2047 14.7138 31.6098 14.7138 32.4764 15.5804Z" fill="white"/>
<path opacity="0.5" fill-rule="evenodd" clip-rule="evenodd" d="M37.9342 9.97494C38.6268 10.6676 38.6268 11.7906 37.9342 12.4832L36.7425 13.6749C36.0499 14.3675 34.9269 14.3675 34.2342 13.6749C33.5416 12.9822 33.5416 11.8593 34.2342 11.1666L35.4259 9.97494C36.1186 9.28231 37.2416 9.28231 37.9342 9.97494Z" fill="white"/>
<path opacity="0.3" fill-rule="evenodd" clip-rule="evenodd" d="M31.4653 6.82737C32.0808 7.44291 32.0808 8.44088 31.4653 9.05641L26.2714 14.2503C25.6558 14.8658 24.6578 14.8658 24.0423 14.2503C23.4268 13.6348 23.4268 12.6368 24.0423 12.0213L29.2362 6.82737C29.8517 6.21184 30.8497 6.21184 31.4653 6.82737Z" fill="white"/>
<path fill-rule="evenodd" clip-rule="evenodd" d="M21.274 16.8941C22.1426 17.7628 22.1426 19.1712 21.274 20.0398L18.5998 22.714C17.7312 23.5826 16.3228 23.5826 15.4542 22.714C14.5855 21.8453 14.5855 20.437 15.4542 19.5683L18.1283 16.8941C18.997 16.0255 20.4053 16.0255 21.274 16.8941Z" fill="white"/>
<path d="M15.4081 22.6666C15.4232 22.6826 15.4385 22.6984 15.4542 22.714C16.3228 23.5826 17.7312 23.5826 18.5998 22.714L21.274 20.0398C22.1426 19.1712 22.1426 17.7628 21.274 16.8942C21.2584 16.8785 21.2426 16.8632 21.2266 16.8481L15.4081 22.6666Z" fill="url(#paint2_linear)"/>
<path opacity="0.3" fill-rule="evenodd" clip-rule="evenodd" d="M13.3001 25.005C13.8789 25.5838 13.8789 26.5221 13.3001 27.1008L8.7141 31.6869C8.13536 32.2656 7.19703 32.2656 6.61829 31.6869C6.03955 31.1081 6.03955 30.1698 6.61829 29.5911L11.2043 25.005C11.7831 24.4263 12.7214 24.4263 13.3001 25.005Z" fill="white"/>
<path opacity="0.2" fill-rule="evenodd" clip-rule="evenodd" d="M23.2193 5.96356C23.6498 6.39406 23.6498 7.09202 23.2193 7.52251L19.5225 11.2194C19.092 11.6499 18.394 11.6499 17.9635 11.2194C17.533 10.7889 17.533 10.0909 17.9635 9.66041L21.6604 5.96356C22.0909 5.53307 22.7888 5.53307 23.2193 5.96356Z" fill="white"/>
<path opacity="0.2" fill-rule="evenodd" clip-rule="evenodd" d="M15.8273 13.4515C16.2578 13.882 16.2578 14.5799 15.8273 15.0104L7.23448 23.6033C6.80399 24.0338 6.10602 24.0338 5.67553 23.6033C5.24504 23.1728 5.24504 22.4748 5.67553 22.0443L14.2684 13.4515C14.6989 13.021 15.3968 13.021 15.8273 13.4515Z" fill="white"/>
<path opacity="0.1" fill-rule="evenodd" clip-rule="evenodd" d="M13.8592 8.22797C14.1508 8.51958 14.1508 8.99238 13.8592 9.28399L10.1753 12.9679C9.88366 13.2596 9.41087 13.2596 9.11926 12.9679C8.82765 12.6763 8.82765 12.2035 9.11926 11.9119L12.8032 8.22797C13.0948 7.93636 13.5676 7.93636 13.8592 8.22797Z" fill="white"/>
<path opacity="0.5" fill-rule="evenodd" clip-rule="evenodd" d="M9.99015 38.2033C9.29751 37.5107 9.29751 36.3877 9.99015 35.6951L11.1818 34.5034C11.8745 33.8108 12.9975 33.8108 13.6901 34.5034C14.3827 35.196 14.3827 36.319 13.6901 37.0116L12.4984 38.2033C11.8058 38.896 10.6828 38.896 9.99015 38.2033Z" fill="white"/>
<path opacity="0.3" fill-rule="evenodd" clip-rule="evenodd" d="M16.4591 41.3508C15.8436 40.7353 15.8436 39.7373 16.4591 39.1218L21.653 33.9279C22.2685 33.3124 23.2665 33.3124 23.8821 33.9279C24.4976 34.5435 24.4976 35.5414 23.8821 36.157L18.6881 41.3508C18.0726 41.9664 17.0746 41.9664 16.4591 41.3508Z" fill="white"/>
<path fill-rule="evenodd" clip-rule="evenodd" d="M26.6503 31.2841C25.7817 30.4155 25.7817 29.0071 26.6503 28.1385L29.3245 25.4643C30.1932 24.5957 31.6015 24.5957 32.4702 25.4643C33.3388 26.333 33.3388 27.7413 32.4702 28.61L29.796 31.2841C28.9274 32.1528 27.519 32.1528 26.6503 31.2841Z" fill="white"/>
<path d="M26.5656 31.1947C26.5929 31.2251 26.6211 31.255 26.6504 31.2842C27.519 32.1528 28.9274 32.1528 29.796 31.2842L32.4702 28.61C33.3389 27.7414 33.3389 26.333 32.4702 25.4644C32.441 25.4351 32.4112 25.4069 32.3807 25.3796L26.5656 31.1947Z" fill="url(#paint3_linear)"/>
<path opacity="0.3" fill-rule="evenodd" clip-rule="evenodd" d="M34.6242 23.1733C34.0454 22.5945 34.0454 21.6562 34.6242 21.0775L39.2102 16.4914C39.789 15.9127 40.7273 15.9127 41.306 16.4914C41.8848 17.0702 41.8848 18.0085 41.306 18.5872L36.72 23.1733C36.1412 23.752 35.2029 23.752 34.6242 23.1733Z" fill="white"/>
<path opacity="0.2" fill-rule="evenodd" clip-rule="evenodd" d="M24.705 42.2147C24.2745 41.7842 24.2745 41.0863 24.705 40.6558L28.4019 36.9589C28.8323 36.5284 29.5303 36.5284 29.9608 36.9589C30.3913 37.3894 30.3913 38.0874 29.9608 38.5179L26.264 42.2147C25.8335 42.6452 25.1355 42.6452 24.705 42.2147Z" fill="white"/>
<path opacity="0.2" fill-rule="evenodd" clip-rule="evenodd" d="M32.097 34.7268C31.6665 34.2963 31.6665 33.5983 32.097 33.1679L40.6898 24.575C41.1203 24.1445 41.8183 24.1445 42.2488 24.575C42.6793 25.0055 42.6793 25.7035 42.2488 26.1339L33.6559 34.7268C33.2254 35.1573 32.5275 35.1573 32.097 34.7268Z" fill="white"/>
<path opacity="0.1" fill-rule="evenodd" clip-rule="evenodd" d="M34.0651 39.9503C33.7735 39.6587 33.7735 39.1859 34.0651 38.8943L37.749 35.2104C38.0407 34.9187 38.5135 34.9187 38.8051 35.2104C39.0967 35.502 39.0967 35.9748 38.8051 36.2664L35.1211 39.9503C34.8295 40.2419 34.3567 40.2419 34.0651 39.9503Z" fill="#ECE8FA"/>
<path d="M15.42 32.5483C15.4342 32.5634 15.4488 32.5783 15.4635 32.5931C16.3301 33.4597 17.7352 33.4597 18.6018 32.5931L32.4763 18.7186C33.3429 17.852 33.3429 16.4469 32.4763 15.5803C32.4616 15.5655 32.4466 15.551 32.4315 15.5367L15.42 32.5483Z" fill="url(#paint4_linear)"/>
<defs>
<linearGradient id="paint0_linear" x1="8.33374e-08" y1="2.50602" x2="48.3508" y2="3.96144" gradientUnits="userSpaceOnUse">
<stop stop-color="#D506D6"/>
<stop offset="1" stop-color="#6B57B8"/>
</linearGradient>
<linearGradient id="paint1_linear" x1="25.632" y1="7.00803" x2="25.632" y2="48" gradientUnits="userSpaceOnUse">
<stop stop-color="#5C2F97"/>
<stop offset="1" stop-color="#5C2F97" stop-opacity="0"/>
</linearGradient>
<linearGradient id="paint2_linear" x1="18.6668" y1="16.8481" x2="18.6668" y2="23.3977" gradientUnits="userSpaceOnUse">
<stop stop-color="#E8EAEE"/>
<stop offset="1" stop-color="#E8EAEE" stop-opacity="0"/>
</linearGradient>
<linearGradient id="paint3_linear" x1="29.8437" y1="25.3796" x2="29.8437" y2="31.9681" gradientUnits="userSpaceOnUse">
<stop stop-color="#E8EAEE"/>
<stop offset="1" stop-color="#E8EAEE" stop-opacity="0"/>
</linearGradient>
<linearGradient id="paint4_linear" x1="24.2731" y1="15.5367" x2="24.2731" y2="35.28" gradientUnits="userSpaceOnUse">
<stop stop-color="#E8EAEE"/>
<stop offset="1" stop-color="#E8EAEE" stop-opacity="0"/>
</linearGradient>
</defs>
</svg>
