<svg width="114" height="19" viewBox="0 0 114 19" fill="none" xmlns="http://www.w3.org/2000/svg">
<path d="M17.16 16.152C17.256 16.36 17.304 16.568 17.304 16.776C17.304 17.144 17.152 17.456 16.848 17.712C16.56 17.968 16.224 18.096 15.84 18.096C15.584 18.096 15.344 18.032 15.12 17.904C14.896 17.76 14.72 17.544 14.592 17.256L13.152 14.04H4.70395L3.26395 17.256C3.13595 17.544 2.95995 17.76 2.73595 17.904C2.51195 18.032 2.26395 18.096 1.99195 18.096C1.62395 18.096 1.28795 17.968 0.983954 17.712C0.679954 17.456 0.527954 17.144 0.527954 16.776C0.527954 16.568 0.575954 16.36 0.671954 16.152L7.29595 1.92004C7.43995 1.60003 7.65595 1.36003 7.94395 1.20003C8.24795 1.02403 8.56796 0.936035 8.90395 0.936035C9.23995 0.936035 9.55195 1.02403 9.83995 1.20003C10.144 1.36003 10.368 1.60003 10.512 1.92004L17.16 16.152ZM5.75995 11.64H12.096L8.92795 4.51203L5.75995 11.64Z" fill="white"/>
<path d="M21.1725 18.144C20.7085 18.144 20.3325 18.008 20.0445 17.736C19.7725 17.448 19.6365 17.064 19.6365 16.584V2.54403C19.6365 2.08003 19.7645 1.72004 20.0205 1.46404C20.2925 1.20803 20.6605 1.08003 21.1245 1.08003H27.0285C28.8365 1.08003 30.2445 1.53604 31.2525 2.44804C32.2605 3.34404 32.7645 4.60804 32.7645 6.24004C32.7645 7.87204 32.2605 9.14404 31.2525 10.056C30.2445 10.968 28.8365 11.424 27.0285 11.424H22.7325V16.584C22.7325 17.064 22.5885 17.448 22.3005 17.736C22.0285 18.008 21.6525 18.144 21.1725 18.144ZM26.6445 9.04803C28.7725 9.04803 29.8365 8.12004 29.8365 6.26404C29.8365 4.40804 28.7725 3.48004 26.6445 3.48004H22.7325V9.04803H26.6445Z" fill="white"/>
<path d="M45.923 1.48804C46.211 1.13603 46.555 0.960035 46.955 0.960035C47.323 0.960035 47.651 1.10403 47.939 1.39204C48.227 1.66404 48.371 1.99204 48.371 2.37604C48.371 2.69603 48.251 3.00003 48.011 3.28803L42.563 9.93604V16.584C42.563 17.08 42.419 17.464 42.131 17.736C41.843 18.008 41.475 18.144 41.027 18.144C40.563 18.144 40.187 18.008 39.899 17.736C39.611 17.464 39.467 17.08 39.467 16.584V9.93604L34.019 3.28803C33.779 3.00003 33.659 2.69603 33.659 2.37604C33.659 1.99204 33.803 1.66404 34.091 1.39204C34.379 1.10403 34.707 0.960035 35.075 0.960035C35.475 0.960035 35.819 1.13603 36.107 1.48804L41.027 7.58404L45.923 1.48804Z" fill="white"/>
<path d="M49.8978 18.144C49.3858 18.144 48.9618 17.976 48.6258 17.64C48.2898 17.288 48.1218 16.856 48.1218 16.344C48.1218 15.832 48.2898 15.408 48.6258 15.072C48.9618 14.72 49.3858 14.544 49.8978 14.544C50.4098 14.544 50.8338 14.72 51.1698 15.072C51.5058 15.408 51.6738 15.832 51.6738 16.344C51.6738 16.856 51.5058 17.288 51.1698 17.64C50.8338 17.976 50.4098 18.144 49.8978 18.144Z" fill="white"/>
<path d="M63.099 6.67203C63.275 6.28803 63.555 6.09604 63.939 6.09604C64.179 6.09604 64.395 6.17604 64.587 6.33604C64.779 6.49604 64.875 6.69603 64.875 6.93603C64.875 7.08003 64.843 7.20804 64.779 7.32004L60.099 17.4C60.003 17.608 59.859 17.776 59.667 17.904C59.475 18.016 59.267 18.072 59.043 18.072C58.835 18.072 58.635 18.016 58.443 17.904C58.251 17.776 58.099 17.608 57.987 17.4L53.331 7.32004C53.267 7.20804 53.235 7.08804 53.235 6.96004C53.235 6.72004 53.339 6.51204 53.547 6.33604C53.771 6.16004 54.011 6.07204 54.267 6.07204C54.427 6.07204 54.579 6.12004 54.723 6.21604C54.883 6.31204 55.003 6.44803 55.083 6.62403L59.091 15.624L63.099 6.67203Z" fill="white"/>
<path d="M68.2918 18.12C68.0038 18.12 67.7638 18.04 67.5718 17.88C67.3958 17.704 67.3078 17.464 67.3078 17.16V7.03204C67.3078 6.72804 67.3958 6.49604 67.5718 6.33604C67.7638 6.16004 68.0038 6.07204 68.2918 6.07204C68.5798 6.07204 68.8118 6.16004 68.9878 6.33604C69.1638 6.49604 69.2518 6.72804 69.2518 7.03204V17.16C69.2518 17.48 69.1638 17.72 68.9878 17.88C68.8118 18.04 68.5798 18.12 68.2918 18.12ZM68.2918 3.55203C67.9078 3.55203 67.5958 3.44003 67.3558 3.21603C67.1158 2.99203 66.9958 2.69603 66.9958 2.32803C66.9958 1.97604 67.1158 1.68804 67.3558 1.46404C67.5958 1.24004 67.9078 1.12804 68.2918 1.12804C68.6758 1.12804 68.9878 1.24004 69.2278 1.46404C69.4678 1.68804 69.5878 1.97604 69.5878 2.32803C69.5878 2.69603 69.4678 2.99203 69.2278 3.21603C68.9878 3.44003 68.6758 3.55203 68.2918 3.55203Z" fill="white"/>
<path d="M76.8219 18.168C76.0859 18.168 75.3819 18.08 74.7099 17.904C74.0539 17.728 73.4699 17.48 72.9579 17.16C72.6699 16.968 72.4619 16.792 72.3339 16.632C72.2219 16.456 72.1659 16.248 72.1659 16.008C72.1659 15.8 72.2219 15.632 72.3339 15.504C72.4619 15.36 72.6219 15.288 72.8139 15.288C73.0059 15.288 73.2859 15.408 73.6539 15.648C74.1339 15.936 74.6059 16.168 75.0699 16.344C75.5499 16.504 76.1419 16.584 76.8459 16.584C77.7099 16.584 78.3819 16.432 78.8619 16.128C79.3419 15.824 79.5819 15.384 79.5819 14.808C79.5819 14.456 79.4939 14.176 79.3179 13.968C79.1419 13.744 78.8379 13.552 78.4059 13.392C77.9739 13.216 77.3419 13.04 76.5099 12.864C75.1019 12.56 74.0939 12.152 73.4859 11.64C72.8779 11.128 72.5739 10.432 72.5739 9.55203C72.5739 8.86403 72.7659 8.25603 73.1499 7.72803C73.5339 7.20003 74.0619 6.78404 74.7339 6.48004C75.4219 6.17604 76.1979 6.02404 77.0619 6.02404C77.6859 6.02404 78.2859 6.11204 78.8619 6.28803C79.4539 6.44804 79.9739 6.68004 80.4219 6.98404C80.9659 7.36803 81.2379 7.76804 81.2379 8.18404C81.2379 8.39204 81.1739 8.56804 81.0459 8.71204C80.9179 8.85604 80.7659 8.92804 80.5899 8.92804C80.3979 8.92804 80.1099 8.79204 79.7259 8.52004C79.2779 8.23204 78.8539 8.00804 78.4539 7.84804C78.0539 7.68804 77.5579 7.60804 76.9659 7.60804C76.2139 7.60804 75.6059 7.77604 75.1419 8.11204C74.6939 8.44804 74.4699 8.89604 74.4699 9.45604C74.4699 9.80803 74.5499 10.096 74.7099 10.32C74.8859 10.528 75.1659 10.72 75.5499 10.896C75.9499 11.056 76.5179 11.216 77.2539 11.376C78.3419 11.616 79.1819 11.88 79.7739 12.168C80.3819 12.456 80.8139 12.808 81.0699 13.224C81.3259 13.64 81.4539 14.168 81.4539 14.808C81.4539 15.816 81.0299 16.632 80.1819 17.256C79.3339 17.864 78.2139 18.168 76.8219 18.168Z" fill="white"/>
<path d="M85.4011 18.12C85.1131 18.12 84.8731 18.04 84.6811 17.88C84.5051 17.704 84.4171 17.464 84.4171 17.16V7.03204C84.4171 6.72804 84.5051 6.49604 84.6811 6.33604C84.8731 6.16004 85.1131 6.07204 85.4011 6.07204C85.6891 6.07204 85.9211 6.16004 86.0971 6.33604C86.2731 6.49604 86.3611 6.72804 86.3611 7.03204V17.16C86.3611 17.48 86.2731 17.72 86.0971 17.88C85.9211 18.04 85.6891 18.12 85.4011 18.12ZM85.4011 3.55203C85.0171 3.55203 84.7051 3.44003 84.4651 3.21603C84.2251 2.99203 84.1051 2.69603 84.1051 2.32803C84.1051 1.97604 84.2251 1.68804 84.4651 1.46404C84.7051 1.24004 85.0171 1.12804 85.4011 1.12804C85.7851 1.12804 86.0971 1.24004 86.3371 1.46404C86.5771 1.68804 86.6971 1.97604 86.6971 2.32803C86.6971 2.69603 86.5771 2.99203 86.3371 3.21603C86.0971 3.44003 85.7851 3.55203 85.4011 3.55203Z" fill="white"/>
<path d="M94.8433 18.168C93.7393 18.168 92.7633 17.92 91.9153 17.424C91.0833 16.928 90.4353 16.224 89.9713 15.312C89.5233 14.384 89.2993 13.312 89.2993 12.096C89.2993 10.88 89.5233 9.81603 89.9713 8.90404C90.4353 7.97604 91.0833 7.26404 91.9153 6.76804C92.7633 6.27204 93.7393 6.02404 94.8433 6.02404C95.9473 6.02404 96.9233 6.27204 97.7713 6.76804C98.6193 7.26404 99.2673 7.97604 99.7153 8.90404C100.179 9.81603 100.411 10.88 100.411 12.096C100.411 13.312 100.179 14.384 99.7153 15.312C99.2673 16.224 98.6193 16.928 97.7713 17.424C96.9233 17.92 95.9473 18.168 94.8433 18.168ZM94.8433 16.56C95.9953 16.56 96.8753 16.184 97.4833 15.432C98.1073 14.664 98.4193 13.552 98.4193 12.096C98.4193 10.672 98.1073 9.57604 97.4833 8.80804C96.8593 8.02404 95.9793 7.63204 94.8433 7.63204C93.7073 7.63204 92.8273 8.02404 92.2033 8.80804C91.5793 9.57604 91.2673 10.672 91.2673 12.096C91.2673 13.536 91.5713 14.64 92.1793 15.408C92.8033 16.176 93.6913 16.56 94.8433 16.56Z" fill="white"/>
<path d="M109.188 6.02404C111.988 6.02404 113.388 7.56804 113.388 10.656V17.16C113.388 17.464 113.3 17.704 113.124 17.88C112.964 18.04 112.732 18.12 112.428 18.12C112.124 18.12 111.884 18.04 111.708 17.88C111.532 17.704 111.444 17.464 111.444 17.16V10.776C111.444 9.68804 111.228 8.89604 110.796 8.40004C110.38 7.90404 109.708 7.65603 108.78 7.65603C107.708 7.65603 106.852 7.98404 106.212 8.64004C105.572 9.29604 105.252 10.184 105.252 11.304V17.16C105.252 17.464 105.164 17.704 104.988 17.88C104.828 18.04 104.596 18.12 104.292 18.12C103.988 18.12 103.748 18.04 103.572 17.88C103.396 17.704 103.308 17.464 103.308 17.16V7.03204C103.308 6.74404 103.396 6.51204 103.572 6.33604C103.748 6.16004 103.988 6.07204 104.292 6.07204C104.58 6.07204 104.804 6.16004 104.964 6.33604C105.14 6.51204 105.228 6.73604 105.228 7.00804V8.23204C105.612 7.51204 106.148 6.96804 106.836 6.60004C107.524 6.21604 108.308 6.02404 109.188 6.02404Z" fill="white"/>
</svg>
