<svg width="18" height="19" viewBox="0 0 18 19" fill="none" xmlns="http://www.w3.org/2000/svg">
<path fill-rule="evenodd" clip-rule="evenodd" d="M15.8397 4.1439L16.9007 4.26782L16.4238 5.22369C16.1912 5.68984 15.9583 6.15598 15.7253 6.62213C15.6976 6.72086 15.6491 6.80741 15.5772 6.9201C15.5472 6.96719 15.4447 7.11696 15.4399 7.12415C15.4128 7.16476 15.3928 7.19678 15.3784 7.22243V9.01384C15.3784 13.5978 10.9421 16.5108 6.75266 16.5108C5.89538 16.5108 5.24405 16.4697 4.49823 16.3069C3.27086 16.0391 2.35746 15.5067 1.93948 14.5762L1.50916 13.6182L2.55494 13.522C3.501 13.435 4.32127 13.2548 4.95119 13.0134C3.22183 12.7353 2.2527 11.9758 2.2527 10.5494V9.79936H3.0027C3.16748 9.79936 3.31607 9.78599 3.44891 9.76145C2.151 8.98543 1.50092 7.74054 1.50092 6.01384C1.50077 5.94024 1.50077 5.94024 1.50033 5.86155C1.49546 4.99121 1.5422 4.52617 1.78046 3.93264C1.93316 3.55225 2.15387 3.20011 2.45092 2.87745L3.01688 2.2627L3.56713 2.89155C5.38045 4.9639 7.17296 6.22116 9.00313 6.37324C9.01095 4.46098 10.4562 3.01384 12.3783 3.01384C13.2743 3.01384 14.0871 3.35396 14.7259 3.96724C15.0755 4.03908 15.4467 4.09801 15.8397 4.1439ZM14.1815 5.38422L13.9516 5.33216L13.7928 5.15792C13.4088 4.73662 12.927 4.51385 12.3783 4.51385C11.281 4.51385 10.5031 5.29564 10.5031 6.38885C10.5031 6.56751 10.4985 6.67977 10.4762 6.82732C10.3874 7.41608 10.0572 7.88885 9.37808 7.88885C7.12955 7.88885 5.10102 6.68427 3.12292 4.62692C3.02095 4.93692 2.99696 5.25557 3.00031 5.85316C3.00076 5.93309 3.00076 5.93309 3.00092 6.01385C3.00092 7.54986 3.6232 8.39004 5.0966 8.85835L5.61942 9.02452V9.57311C5.61942 10.2384 4.98917 10.8646 4.06702 11.1451C4.48974 11.4658 5.35426 11.6389 6.75292 11.6389H7.50292V12.3889C7.50292 13.4634 6.26822 14.3047 4.40307 14.7441C5.01134 14.9305 5.82125 15.0108 6.75266 15.0108C10.2135 15.0108 13.8784 12.6043 13.8784 9.01385V7.13885C13.8784 6.91851 13.9423 6.72726 14.0484 6.5284C14.0899 6.45065 14.1355 6.37653 14.1919 6.29199C14.2025 6.27608 14.2419 6.21841 14.2732 6.1723L14.3326 6.05343C14.4289 5.8608 14.5252 5.66817 14.6214 5.47554C14.4719 5.4472 14.3252 5.41677 14.1815 5.38422Z" fill="white"/>
</svg>
